<?xml version="1.0" encoding="UTF-8" standalone="no"?><!-- Generator: Gravit.io --><svg xmlns="http://www.w3.org/2000/svg" xmlns:xlink="http://www.w3.org/1999/xlink" style="isolation:isolate" viewBox="0 0 512 512" width="512pt" height="512pt"><defs><clipPath id="_clipPath_t7Qxi4EQNquzlkug991ixOQLNfTLJuAy"><rect width="512" height="512"/></clipPath></defs><g clip-path="url(#_clipPath_t7Qxi4EQNquzlkug991ixOQLNfTLJuAy)"><g><g><g><path d=" M 458.105 101.179 C 458.105 72.799 437.895 53.88 409.6 53.88 L 59.284 53.88 C 26.947 53.88 0 76.854 0 110.638 L 0 216.046 L 458.105 216.046 L 458.105 101.179 Z " fill="rgb(115,70,62)"/></g></g><g><g><g><g><rect x="40.35" y="60.683" width="390.88" height="249.915" transform="matrix(0.937,-0.351,0.349,0.937,-49.784,94.34)" fill="rgb(207,242,139)"/></g></g><g><g><g><path d=" M 298.047 47.652 L 98.607 122.327 L 31.706 147.377 L 56.681 214.477 L 81.656 281.577 L 106.631 348.678 L 173.532 323.628 L 372.972 248.953 L 439.873 223.904 L 414.898 156.803 L 389.923 89.703 L 364.948 22.603 L 298.047 47.652 Z  M 399.431 165.48 C 379.066 180.317 368.782 202.92 369.219 227.278 L 162.205 304.789 C 147.883 285.63 123.614 274.522 99.008 277.965 L 72.148 205.801 C 92.513 190.963 102.797 168.36 102.36 144.002 L 309.374 66.491 C 323.696 85.65 347.965 96.758 372.571 93.315 L 399.431 165.48 Z " fill="rgb(78,181,80)"/></g></g><g><g><path d=" M 168.653 210.056 C 154.869 173.023 173.655 131.732 210.579 117.907 C 247.503 104.082 288.671 122.924 302.455 159.958 C 316.239 196.992 297.452 238.282 260.529 252.107 C 223.605 265.933 182.437 247.09 168.653 210.056 Z " fill="rgb(78,181,80)"/></g></g></g></g><g><g><g><rect x="40.421" y="101.179" width="390.737" height="250.007" transform="matrix(1,0,0,1,0,0)" fill="rgb(207,242,139)"/></g></g><g><g><g><path d=" M 342.232 118.747 L 129.347 118.747 L 57.937 118.747 L 57.937 190.37 L 57.937 261.993 L 57.937 333.617 L 129.347 333.617 L 342.232 333.617 L 413.642 333.617 L 413.642 261.993 L 413.642 190.37 L 413.642 118.747 L 342.232 118.747 Z  M 396.126 264.696 C 371.874 271.453 354.358 289.021 346.274 311.995 L 125.305 311.995 C 118.568 289.021 99.705 270.102 75.453 264.696 L 75.453 187.667 C 99.705 180.91 117.221 163.342 125.305 140.369 L 346.274 140.369 C 353.011 163.342 371.874 182.262 396.126 187.667 L 396.126 264.696 Z " fill="rgb(78,181,80)"/></g></g><g><g><ellipse vector-effect="non-scaling-stroke" cx="235.78947368421046" cy="225.5060618332646" rx="71.41052631578945" ry="71.62348454168381" fill="rgb(78,181,80)"/></g></g></g></g></g><g><g><path d=" M 0 107.935 L 0 107.935 C 0 141.72 25.6 168.748 57.937 168.748 L 423.074 168.748 C 456.758 168.748 483.705 197.127 483.705 232.263 L 483.705 452.539 C 483.705 487.675 452.716 512 419.032 512 L 66.021 512 C 32.337 512 0 487.675 0 452.539 L 0 107.935 Z " fill="rgb(168,103,88)"/></g></g><g><g><path d=" M 512 372.807 C 512 383.618 503.916 391.727 494.484 391.727 L 423.074 391.727 C 396.126 391.727 374.568 367.402 374.568 339.023 L 374.568 339.023 C 374.568 309.292 396.126 286.318 423.074 286.318 L 494.484 286.318 C 503.916 286.318 512 294.427 512 305.238 L 512 372.807 Z " fill="rgb(123,72,63)"/></g></g><g><g><ellipse vector-effect="non-scaling-stroke" cx="432.50526315789466" cy="339.02252789932965" rx="25.600000000000023" ry="25.676343514943255" fill="rgb(247,216,171)"/></g></g><g><g><g><path d=" M 417.684 222.803 L 390.737 222.803 C 386.695 222.803 384 220.101 384 216.046 C 384 211.992 386.695 209.289 390.737 209.289 L 417.684 209.289 C 421.726 209.289 424.421 211.992 424.421 216.046 C 424.421 220.101 421.726 222.803 417.684 222.803 Z  M 350.316 222.803 L 323.368 222.803 C 319.326 222.803 316.632 220.101 316.632 216.046 C 316.632 211.992 319.326 209.289 323.368 209.289 L 350.316 209.289 C 354.358 209.289 357.053 211.992 357.053 216.046 C 357.053 220.101 354.358 222.803 350.316 222.803 Z  M 282.947 222.803 L 256 222.803 C 251.958 222.803 249.263 220.101 249.263 216.046 C 249.263 211.992 251.958 209.289 256 209.289 L 282.947 209.289 C 286.989 209.289 289.684 211.992 289.684 216.046 C 289.684 220.101 286.989 222.803 282.947 222.803 Z  M 215.579 222.803 L 188.632 222.803 C 184.589 222.803 181.895 220.101 181.895 216.046 C 181.895 211.992 184.589 209.289 188.632 209.289 L 215.579 209.289 C 219.621 209.289 222.316 211.992 222.316 216.046 C 222.316 220.101 219.621 222.803 215.579 222.803 Z  M 148.211 222.803 L 121.263 222.803 C 117.221 222.803 114.526 220.101 114.526 216.046 C 114.526 211.992 117.221 209.289 121.263 209.289 L 148.211 209.289 C 152.253 209.289 154.947 211.992 154.947 216.046 C 154.947 220.101 152.253 222.803 148.211 222.803 Z  M 80.842 222.803 L 53.895 222.803 C 49.853 222.803 47.158 220.101 47.158 216.046 C 47.158 211.992 49.853 209.289 53.895 209.289 L 80.842 209.289 C 84.884 209.289 87.579 211.992 87.579 216.046 C 87.579 220.101 84.884 222.803 80.842 222.803 Z " fill="rgb(221,182,153)"/></g></g></g><g><g><g><path d=" M 417.684 472.81 L 390.737 472.81 C 386.695 472.81 384 470.107 384 466.053 C 384 461.999 386.695 459.296 390.737 459.296 L 417.684 459.296 C 421.726 459.296 424.421 461.999 424.421 466.053 C 424.421 470.107 421.726 472.81 417.684 472.81 Z  M 350.316 472.81 L 323.368 472.81 C 319.326 472.81 316.632 470.107 316.632 466.053 C 316.632 461.999 319.326 459.296 323.368 459.296 L 350.316 459.296 C 354.358 459.296 357.053 461.999 357.053 466.053 C 357.053 470.107 354.358 472.81 350.316 472.81 Z  M 282.947 472.81 L 256 472.81 C 251.958 472.81 249.263 470.107 249.263 466.053 C 249.263 461.999 251.958 459.296 256 459.296 L 282.947 459.296 C 286.989 459.296 289.684 461.999 289.684 466.053 C 289.684 470.107 286.989 472.81 282.947 472.81 Z  M 215.579 472.81 L 188.632 472.81 C 184.589 472.81 181.895 470.107 181.895 466.053 C 181.895 461.999 184.589 459.296 188.632 459.296 L 215.579 459.296 C 219.621 459.296 222.316 461.999 222.316 466.053 C 222.316 470.107 219.621 472.81 215.579 472.81 Z  M 148.211 472.81 L 121.263 472.81 C 117.221 472.81 114.526 470.107 114.526 466.053 C 114.526 461.999 117.221 459.296 121.263 459.296 L 148.211 459.296 C 152.253 459.296 154.947 461.999 154.947 466.053 C 154.947 470.107 152.253 472.81 148.211 472.81 Z  M 80.842 472.81 L 53.895 472.81 C 49.853 472.81 47.158 470.107 47.158 466.053 C 47.158 461.999 49.853 459.296 53.895 459.296 L 80.842 459.296 C 84.884 459.296 87.579 461.999 87.579 466.053 C 87.579 470.107 84.884 472.81 80.842 472.81 Z " fill="rgb(221,182,153)"/></g></g></g></g></g></svg>