<?xml version="1.0" standalone="no"?>
<!DOCTYPE svg PUBLIC "-//W3C//DTD SVG 20010904//EN"
 "http://www.w3.org/TR/2001/REC-SVG-20010904/DTD/svg10.dtd">
<svg version="1.0" xmlns="http://www.w3.org/2000/svg"
 width="700.000000pt" height="700.000000pt" viewBox="0 0 700.000000 700.000000"
 preserveAspectRatio="xMidYMid meet">
<metadata>
Created by potrace 1.14, written by Peter Selinger 2001-2017
</metadata>
<g transform="translate(0.000000,700.000000) scale(0.100000,-0.100000)"
fill="#000000" stroke="none">
<path d="M3565 6157 l-1420 -532 412 -3 412 -2 630 235 631 236 27 -33 c80
-99 216 -203 337 -258 120 -55 199 -72 358 -77 l147 -5 16 -49 17 -49 129 0
c72 0 128 4 125 8 -2 4 -91 239 -196 522 -105 282 -194 519 -198 526 -5 9
-403 -136 -1427 -519z"/>
<path d="M625 6245 c-260 -57 -470 -226 -566 -454 -63 -152 -60 19 -57 -2671
l3 -2445 23 -70 c97 -287 321 -488 642 -577 l85 -23 2560 0 2560 0 97 27 c169
47 307 128 419 244 108 113 165 214 200 359 17 73 19 120 19 543 l0 462 78 0
c148 1 225 37 277 132 l30 53 0 540 0 540 -30 53 c-52 95 -129 131 -277 132
l-78 0 0 413 c0 422 -5 492 -41 601 -48 145 -121 259 -239 373 l-69 68 -3 615
c-3 605 -4 616 -25 673 -78 205 -204 330 -403 398 -55 18 -93 23 -242 27 -98
2 -178 2 -178 0 0 -2 53 -148 119 -324 l119 -319 121 -3 121 -3 0 -319 c0
-357 -7 -308 79 -539 l31 -84 -32 8 c-18 4 -96 10 -173 14 l-140 6 -3 343 -2
342 -2428 -2 -2427 -3 -3 -343 -2 -342 -40 5 c-22 3 -59 7 -82 10 -24 3 -60
11 -80 17 l-38 11 0 147 0 148 -55 -21 c-30 -11 -55 -24 -55 -28 0 -5 18 -57
40 -115 22 -59 38 -110 34 -113 -10 -11 -150 69 -215 123 -83 68 -121 116
-148 190 -12 32 -20 60 -19 61 2 1 96 37 211 80 l207 78 0 163 0 163 448 3
447 3 855 322 855 323 -1235 -1 c-988 0 -1247 -3 -1295 -14z m4137 -1238 c33
-87 86 -178 150 -258 l48 -59 -568 0 -567 0 -45 31 c-112 75 -262 137 -390
159 -90 16 -271 14 -355 -4 -136 -29 -282 -91 -374 -160 l-35 -26 -573 0
c-315 0 -573 2 -573 5 0 3 27 38 60 77 40 47 81 113 118 190 l57 117 1510 1
1510 0 27 -73z m-3595 -899 c32 -30 32 -90 -2 -123 l-24 -25 -221 0 -221 0
-24 25 c-31 30 -33 82 -4 119 l20 26 227 0 c218 0 227 -1 249 -22z m920 0 c34
-32 32 -99 -3 -127 -25 -20 -39 -21 -244 -21 -249 0 -257 2 -267 77 -5 35 -2
45 20 67 l26 26 222 0 c215 0 224 -1 246 -22z m921 2 c33 -31 31 -102 -4 -129
-25 -20 -39 -21 -240 -21 -117 0 -220 3 -229 6 -26 10 -48 62 -40 100 11 61
24 64 270 64 209 0 222 -1 243 -20z m912 10 c23 -12 43 -70 34 -96 -4 -10 -16
-29 -27 -41 -20 -23 -25 -23 -241 -23 -158 1 -226 4 -237 13 -28 21 -41 57
-35 93 12 61 25 64 269 64 125 0 226 -4 237 -10z m919 0 c25 -13 45 -64 37
-95 -3 -13 -16 -34 -28 -45 -21 -19 -35 -20 -243 -20 -217 0 -222 0 -243 23
-30 32 -36 69 -18 105 9 17 21 32 28 35 24 10 449 7 467 -3z m928 -5 c42 -30
39 -108 -6 -142 -11 -9 -78 -12 -232 -13 -201 0 -218 1 -241 20 -30 23 -40 63
-27 99 18 49 28 51 264 51 182 0 224 -3 242 -15z m298 -1437 c68 -35 128 -97
162 -166 24 -50 28 -69 28 -147 0 -78 -4 -97 -28 -147 -35 -71 -91 -129 -159
-165 -48 -25 -63 -28 -153 -28 -86 0 -107 3 -150 25 -64 31 -134 101 -165 165
-32 65 -40 191 -16 262 33 97 124 188 220 219 68 22 200 13 261 -18z m-4929
-1968 c38 -15 53 -38 54 -83 0 -27 -7 -45 -25 -63 l-25 -25 -226 3 c-224 3
-226 3 -245 27 -36 44 -17 120 35 141 30 13 399 12 432 0z m923 -1 c38 -13 51
-35 51 -84 0 -25 -8 -43 -25 -60 -24 -25 -24 -25 -234 -25 -133 0 -219 4 -234
11 -64 29 -59 133 7 159 32 13 397 12 435 -1z m920 0 c38 -14 51 -35 51 -88 0
-31 -6 -44 -26 -60 -25 -20 -39 -21 -235 -21 -131 0 -217 4 -232 11 -64 29
-59 133 7 159 32 13 397 12 435 -1z m925 -3 c61 -26 70 -111 14 -150 -19 -13
-56 -16 -236 -16 l-214 0 -30 30 c-26 27 -30 36 -25 67 7 41 30 70 61 76 11 2
106 5 209 6 141 1 196 -2 221 -13z m948 -14 c34 -33 31 -97 -5 -128 -28 -24
-31 -24 -241 -24 -199 0 -215 1 -239 20 -51 40 -43 119 15 145 26 12 76 14
240 12 200 -2 208 -3 230 -25z m918 2 c11 -11 23 -37 27 -57 5 -31 1 -40 -25
-67 l-30 -30 -215 0 c-198 0 -216 1 -239 20 -49 38 -40 121 16 146 24 11 79
13 238 11 194 -2 209 -3 228 -23z"/>
</g>
</svg>
